<svg xmlns="http://www.w3.org/2000/svg" version="1.1" xmlns:xlink="http://www.w3.org/1999/xlink" xmlns:svgjs="http://svgjs.dev/svgjs" width="2000" height="383" viewBox="0 0 2000 383"><g transform="matrix(1,0,0,1,-1.2121212121213603,-1.1863768007028739)"><svg viewBox="0 0 396 76" data-background-color="#ffffff" preserveAspectRatio="xMidYMid meet" height="383" width="2000" xmlns="http://www.w3.org/2000/svg" xmlns:xlink="http://www.w3.org/1999/xlink"><g id="tight-bounds" transform="matrix(1,0,0,1,0.24000000000003752,0.23541680640579443)"><svg viewBox="0 0 395.5199999999999 75.52916638718838" height="75.52916638718838" width="395.5199999999999"><g><svg viewBox="0 0 479.83567510959097 91.63022993492407" height="75.52916638718838" width="395.5199999999999"><g transform="matrix(1,0,0,1,84.31567510959098,0)"><svg viewBox="0 0 395.52 91.63022993492407" height="91.63022993492407" width="395.52"><g id="textblocktransform"><svg viewBox="0 0 395.52 91.63022993492407" height="91.63022993492407" width="395.52" id="textblock"><g><svg viewBox="0 0 395.52 91.63022993492407" height="91.63022993492407" width="395.52"><g transform="matrix(1,0,0,1,0,0)"><svg width="395.52" viewBox="0.8999999999999999 -38.72 225.09 52.15" height="91.63022993492407" data-palette-color="#3949fd"><path d="M36.45-23.12L31.08-22.88 28.86-22.9Q26.88-22.9 22.73-22.85L22.73-22.85Q22.44-23.66 21.55-24.22 20.65-24.78 19.58-24.78 18.51-24.78 17.82-24.3 17.14-23.83 17.14-22.97 17.14-22.12 17.79-21.44 18.43-20.75 19.6-20.47 20.78-20.19 21.94-20.09 23.1-20 24.65-19.9 26.2-19.8 26.99-19.67 27.78-19.53 29-19.38L29-19.38Q31.18-19.09 32.85-18.59 34.52-18.09 36.35-16.5L36.35-16.5Q36.72-16.33 37.33-15.6L37.33-15.6Q38.43-13.92 38.72-10.72L38.72-10.72Q38.6-7.2 36.16-4.48 33.72-1.76 29.98-0.54L29.98-0.54Q29.69-0.39 29.25-0.34L29.25-0.34 28.42-0.15Q26.05 0.54 24.32 0.54L24.32 0.54Q23.27 0.88 20.95 0.88L20.95 0.88 20.34 0.85 18.55 0.85 18.29 0.88Q14.5 0.88 10.18-0.34L10.18-0.34 10.18-0.32Q0.98-2.59 0.95-8.23L0.95-8.23Q2.25-8.13 4.54-8.13 6.84-8.13 10.75-8.17 14.67-8.2 16.7-8.2L16.7-8.2Q16.67-8.06 16.67-7.71L16.67-7.71Q16.67-6.64 17.77-5.96 18.87-5.27 20.31-5.27 21.75-5.27 22.58-5.83 23.41-6.4 23.41-7.29 23.41-8.18 22.95-8.78 22.49-9.38 21.58-9.67 20.68-9.96 19.91-10.1 19.14-10.23 17.92-10.33 16.7-10.42 16.11-10.52 15.53-10.62 14.38-10.78 13.23-10.94 12.37-11.05 11.5-11.16 10.34-11.38 9.18-11.6 8.29-11.83 7.4-12.06 6.37-12.45 5.35-12.84 4.59-13.31L4.59-13.31Q0.9-15.6 0.9-20L0.9-20Q0.9-23.93 3.13-26.07L3.13-26.07Q5.91-28.74 12.16-29.54L12.16-29.54Q12.79-29.64 13.96-29.9 15.14-30.15 15.58-30.15 16.02-30.15 16.16-30.1L16.16-30.1 19.26-30.27 23.56-30.08Q23.8-30.05 24.98-29.98L24.98-29.98Q27.88-29.76 30.09-29.16 32.3-28.56 34.31-26.83 36.33-25.1 36.62-23.07L36.62-23.07 36.45-23.12ZM41.21-29.22L47.7-29.2 54.25-29.22Q54.37-28.71 54.69-27.61 55-26.51 55.3-25.42L55.3-25.42 55.76-23.58Q56.74-26.05 56.96-26.32L56.96-26.32 57.35-26.81Q59.81-30.27 64.91-30.27L64.91-30.27Q67.33-30.27 69.52-28.82 71.7-27.37 72.92-25.04 74.14-22.71 74.14-20.12L74.14-20.12Q74.14-19.82 74.07-19.65L74.07-19.65 74.07-4.64 74.09 0.02 59.81 0.02 59.76-12.18 59.86-14.67Q59.86-18.41 57.88-18.41L57.88-18.41Q55.76-18.41 55.76-14.87L55.76-14.87Q55.76-14.09 55.78-13.79L55.78-13.79 55.78-13.43 55.81-13.01 55.81 0 48.53 0.02 41.23 0.02 41.21-14.62 41.21-29.22ZM88.28-16.04L89.4-16.21 89.64-16.19 90.23-16.19Q91.06-16.19 91.52-16.31L91.52-16.31 92.84-16.48Q96.21-16.72 96.89-18.29L96.89-18.29Q97.24-19.07 97.24-20.26L97.24-20.26Q97.09-20.51 97.09-21.19 97.09-21.88 96.39-22.63 95.7-23.39 94.75-23.39L94.75-23.39 94.62-23.39Q92.28-23.39 92.28-19.41L92.28-19.41Q92.16-19.21 91.88-19.26 91.6-19.31 90.52-19.31L90.52-19.31 77.92-19.31Q78.05-21 78.8-22.95L78.8-22.95Q80.24-26.71 84.38-28.36 88.52-30 92.6-30.15L92.6-30.15 94.06-30.22 94.84-30.3Q94.99-30.3 95.14-30.22L95.14-30.22 95.45-30.22 96.55-30.27Q96.89-30.27 98.09-30.1L98.09-30.1 98.8-30Q98.97-29.98 99.34-29.98 99.7-29.98 100.87-29.82 102.05-29.66 103.8-28.98L103.8-28.98Q109.76-26.64 111.03-20L111.03-20Q111.57-17.19 111.57-13.77L111.57-13.77Q111.74-13.21 111.74-12.74L111.74-12.74 111.62-11.06 111.62-8.23Q111.64-8.18 111.64-7.81L111.64-7.81 111.59-6.15 111.59-5.93Q111.66-5.81 111.66-5.59L111.66-5.59 111.64-5.37 111.64-4.86Q111.64-2.54 112.35-0.46L112.35-0.46 112.59 0.07 101.56 0.07 100.68 0.05Q99.7 0.05 99.19 0.07L99.19 0.07Q98.41-1.39 97.7-3.93L97.7-3.93Q97.38-3.27 96.61-2.43 95.84-1.59 95.48-1.59L95.48-1.59Q91.87 0.17 89.99 0.42L89.99 0.42Q87.2 0.88 86.99 0.88 86.79 0.88 86.79 0.88L86.79 0.88Q80.95 0.88 77.97-3.17L77.97-3.17Q76.48-5.25 76.48-7.98L76.48-7.98Q76.48-13.92 82-15.26L82-15.26Q83.42-15.6 87.47-15.97L87.47-15.97 88.28-16.04ZM97.41-9.81L97.41-10.55 97.43-11.33Q97.43-12.55 97.24-13.67L97.24-13.67Q96.7-13.38 95.67-13.01 94.65-12.65 94.04-12.39 93.43-12.13 92.93-11.49 92.43-10.84 92.43-9.72 92.43-8.59 93.15-7.67 93.87-6.74 94.72-6.74L94.72-6.74Q96.55-6.74 97.33-8.06L97.33-8.06 97.38-8.3 97.41-9.81ZM114.91-10.72L114.91-29.2 121.21-29.22 127.58-29.22Q128.04-28.27 128.41-27.61L128.41-27.61 129.34-25.9Q131.93-28.27 134.11-29.26 136.3-30.25 138.88-30.25 141.47-30.25 143.52-29.3L143.52-29.3Q147.14-27.61 148.88-23.58 150.63-19.56 150.63-14.99L150.63-14.99Q150.63-14.4 150.53-13.92L150.53-13.92Q150.14-9.67 149.05-6.87 147.97-4.08 145.23-1.56L145.23-1.56 145.23-1.59Q142.79 0.51 140.59 0.51L140.59 0.51Q139.96 0.81 139.31 0.81 138.66 0.81 137.5 0.65 136.35 0.49 135.98 0.29L135.98 0.29Q132.59-0.44 130.49-2.59L130.49-2.59 129.56-2.56Q129.78-1.17 129.78-0.17L129.78-0.17 129.75 0.27 129.75 7.74 122.33 7.76 114.93 7.76 114.91-10.72ZM135.34-12.28L135.34-12.28 135.47-13.82Q135.44-13.84 135.44-13.92 135.44-13.99 135.47-14.04L135.47-14.04 135.47-14.45Q135.47-15.65 135.37-16.43L135.37-16.43 135.22-17.46Q135.17-17.7 134.95-18.95L134.95-18.95Q134.37-22.09 132.49-22.09L132.49-22.09Q129.46-22.09 129.46-14.14L129.46-14.14Q129.46-9.77 130.8-7.76L130.8-7.76Q131.44-6.84 132.37-6.62L132.37-6.62Q134.9-6.84 135.34-12.28ZM153.48-38.48L168.57-38.53 168.59-31.84 153.55-31.84Q153.55-34.18 153.51-35.18L153.51-35.18 153.48-38.48ZM153.48-38.48L153.24-38.48 153.48-38.72 153.48-38.48ZM168.67-8.5L168.67-7.74 168.69-7.52 168.72-3.86Q168.72-2.86 168.62-1.46 168.52-0.07 168.45-0.02L168.45-0.02 168.01 0.02 159.12 0.02 158.1 0.12Q154.29 0.12 153.46 0.02L153.46 0.02 153.46-0.15 153.43-0.61 153.43-1.71Q153.43-6.52 153.58-9.69L153.58-9.69 153.85-28.49 153.85-29.22 155.75-29.25 156.17-29.22 156.87-29.22 157.49-29.2 157.8-29.22 159.56-29.22 159.93-29.25 168.25-29.15Q168.35-29.17 168.4-29.17 168.45-29.17 168.45-29.03L168.45-29.03 168.47-26.71Q168.5-24.39 168.57-20.5 168.64-16.6 168.64-14.99L168.64-14.99 168.62-11.94 168.62-10.64 168.69-9.35 168.69-8.59Q168.69-8.57 168.67-8.5L168.67-8.5ZM174.62-27.71L174.62-28.64 174.57-30.59Q174.57-31.76 175.39-33.98 176.21-36.21 177.6-37.43L177.6-37.43Q178.89-38.35 182.76-38.35 186.63-38.35 190.93-38.28L190.93-38.28 190.93-33.08 190.1-33.08Q189.22-33.08 188.83-33.11L188.83-33.11Q186.9-32.4 186.9-29.05L186.9-29.05Q186.95-28.91 186.95-28.85 186.95-28.78 186.93-28.69L186.93-28.69 186.93-28Q187.71-27.86 188.73-27.86L188.73-27.86 189.83-27.86Q190.47-27.86 190.83-27.83L190.83-27.83 190.83-20.34 186.85-20.34 186.85 0.02 181.75 0.05Q179.48 0.05 174.55 0L174.55 0 174.55-20.36 171.76-20.36 171.74-24.05 171.74-27.71 174.62-27.71ZM198.23 3.37L198.23 3.39Q200.5 2.61 200.5-1.03L200.5-1.03Q200.5-2.39 199.57-5.35L199.57-5.35 199.18-6.57Q196.32-15.72 192.03-29.17L192.03-29.17 199.47-29.17 206.82-29.2 207.92-22.88Q208.04-21.83 208.31-19.9 208.58-17.97 208.7-16.99L208.7-16.99 211.07-29.2 225.5-29.2 225.5-29.25 225.99-29.2 225.86-28.71 225.82-28.71 219.37-10.84Q218.37-8.33 217.88-6.63 217.39-4.93 216.78-3.44 216.17-1.95 214.65 2.4 213.12 6.76 211.73 9.25L211.73 9.25Q209.53 12.99 204.72 13.31L204.72 13.31 202.43 13.33 200.45 13.43Q199.89 13.43 199.5 13.35L199.5 13.35Q199.33 13.4 198.98 13.4L198.98 13.4 197.49 13.33 196.54 13.4Q196.42 13.4 195.93 13.35L195.93 13.35Q194.91 13.35 193.88 13.35L193.88 13.35 193.42 12.11Q193.37 11.96 193.37 11.73 193.37 11.5 193.39 11.4L193.39 11.4 193.39 11.23 193.42 10.99 193.42 8.2Q193.42 5.32 193.39 3.93L193.39 3.93Q193.74 3.88 194.14 3.88 194.54 3.88 194.78 3.96L194.78 3.96Q195.13 3.88 195.69 3.88L195.69 3.88 195.88 3.88Q196.08 3.76 196.76 3.66 197.45 3.56 197.81 3.47 198.18 3.37 198.23 3.37L198.23 3.37Z" opacity="1" transform="matrix(1,0,0,1,0,0)" fill="#3949fd" class="wordmark-text-0" data-fill-palette-color="primary" id="text-0"></path></svg></g></svg></g></svg></g></svg></g><g transform="matrix(1,0,0,1,0,4.0262323033405565)"><svg viewBox="0 0 62.68397694747385 83.57776532824296" height="83.57776532824296" width="62.68397694747385"><g><svg xmlns="http://www.w3.org/2000/svg" xmlns:xlink="http://www.w3.org/1999/xlink" version="1.1" x="0" y="0" viewBox="7.999749999999998 0 48.0005 64" enable-background="new 0 0 64 64" xml:space="preserve" height="83.57776532824296" width="62.68397694747385" class="icon-icon-0" data-fill-palette-color="accent" id="icon-0"><g fill="#0718c4" data-fill-palette-color="accent"><g fill="#0718c4" data-fill-palette-color="accent"><g fill="#0718c4" data-fill-palette-color="accent"><path d="M49 64H9c-0.553 0-1-0.447-1-1V24c0-0.553 0.447-1 1-1h40c0.553 0 1 0.447 1 1v39C50 63.553 49.553 64 49 64zM10 62h38V25H10V62z" fill="#0718c4" data-fill-palette-color="accent"></path></g><g fill="#0718c4" data-fill-palette-color="accent"><path d="M9 25c-0.256 0-0.512-0.098-0.707-0.293-0.391-0.391-0.391-1.023 0-1.414l6-6c0.391-0.391 1.023-0.391 1.414 0s0.391 1.023 0 1.414l-6 6C9.512 24.902 9.256 25 9 25z" fill="#0718c4" data-fill-palette-color="accent"></path></g><g fill="#0718c4" data-fill-palette-color="accent"><path d="M49 25c-0.256 0-0.512-0.098-0.707-0.293-0.391-0.391-0.391-1.023 0-1.414l6-6c0.391-0.391 1.023-0.391 1.414 0s0.391 1.023 0 1.414l-6 6C49.512 24.902 49.256 25 49 25z" fill="#0718c4" data-fill-palette-color="accent"></path></g><g fill="#0718c4" data-fill-palette-color="accent"><path d="M49 64c-0.256 0-0.512-0.098-0.707-0.293-0.391-0.391-0.391-1.023 0-1.414l6-6c0.391-0.391 1.023-0.391 1.414 0s0.391 1.023 0 1.414l-6 6C49.512 63.902 49.256 64 49 64z" fill="#0718c4" data-fill-palette-color="accent"></path></g><g fill="#0718c4" data-fill-palette-color="accent"><path d="M21 19h-6c-0.553 0-1-0.447-1-1s0.447-1 1-1h6c0.553 0 1 0.447 1 1S21.553 19 21 19z" fill="#0718c4" data-fill-palette-color="accent"></path></g><g fill="#0718c4" data-fill-palette-color="accent"><path d="M55 58c-0.553 0-1-0.447-1-1V18c0-0.553 0.447-1 1-1s1 0.447 1 1v39C56 57.553 55.553 58 55 58z" fill="#0718c4" data-fill-palette-color="accent"></path></g><g fill="#0718c4" data-fill-palette-color="accent"><path d="M44 22H20c-0.553 0-1-0.447-1-1s0.447-1 1-1h24c0.553 0 1 0.447 1 1S44.553 22 44 22z" fill="#0718c4" data-fill-palette-color="accent"></path></g><g fill="#0718c4" data-fill-palette-color="accent"><path d="M44 40H14c-0.553 0-1-0.447-1-1V29c0-0.553 0.447-1 1-1h30c0.553 0 1 0.447 1 1v10C45 39.553 44.553 40 44 40zM15 38h28v-8H15V38z" fill="#0718c4" data-fill-palette-color="accent"></path></g><g fill="#0718c4" data-fill-palette-color="accent"><g fill="#0718c4" data-fill-palette-color="accent"><g fill="#0718c4" data-fill-palette-color="accent"><path d="M21 54c-0.553 0-1-0.447-1-1v-1c0-0.553 0.447-1 1-1s1 0.447 1 1v1C22 53.553 21.553 54 21 54z" fill="#0718c4" data-fill-palette-color="accent"></path></g><g fill="#0718c4" data-fill-palette-color="accent"><path d="M25 56c-0.553 0-1-0.447-1-1v-4.833c0-0.553 0.447-1 1-1s1 0.447 1 1V55C26 55.553 25.553 56 25 56z" fill="#0718c4" data-fill-palette-color="accent"></path></g><g fill="#0718c4" data-fill-palette-color="accent"><path d="M29 58c-0.553 0-1-0.447-1-1v-9c0-0.553 0.447-1 1-1s1 0.447 1 1v9C30 57.553 29.553 58 29 58z" fill="#0718c4" data-fill-palette-color="accent"></path></g></g><g fill="#0718c4" data-fill-palette-color="accent"><g fill="#0718c4" data-fill-palette-color="accent"><path d="M37 54c-0.553 0-1-0.447-1-1v-1c0-0.553 0.447-1 1-1s1 0.447 1 1v1C38 53.553 37.553 54 37 54z" fill="#0718c4" data-fill-palette-color="accent"></path></g><g fill="#0718c4" data-fill-palette-color="accent"><path d="M33 55.833c-0.553 0-1-0.447-1-1V50c0-0.553 0.447-1 1-1s1 0.447 1 1v4.833C34 55.386 33.553 55.833 33 55.833z" fill="#0718c4" data-fill-palette-color="accent"></path></g></g></g><g fill="#0718c4" data-fill-palette-color="accent"><path d="M16 49c-1.654 0-3-1.346-3-3s1.346-3 3-3 3 1.346 3 3S17.654 49 16 49zM16 45c-0.552 0-1 0.448-1 1s0.448 1 1 1 1-0.448 1-1S16.552 45 16 45z" fill="#0718c4" data-fill-palette-color="accent"></path></g><g fill="#0718c4" data-fill-palette-color="accent"><path d="M42 49c-1.654 0-3-1.346-3-3s1.346-3 3-3 3 1.346 3 3S43.654 49 42 49zM42 45c-0.552 0-1 0.448-1 1s0.448 1 1 1 1-0.448 1-1S42.552 45 42 45z" fill="#0718c4" data-fill-palette-color="accent"></path></g><g fill="#0718c4" data-fill-palette-color="accent"><path d="M42.03 59c-0.553 0-1.005-0.447-1.005-1s0.442-1 0.994-1h0.011c0.552 0 1 0.447 1 1S42.582 59 42.03 59z" fill="#0718c4" data-fill-palette-color="accent"></path></g><g fill="#0718c4" data-fill-palette-color="accent"><path d="M16.03 59c-0.553 0-1.005-0.447-1.005-1s0.442-1 0.994-1h0.011c0.552 0 1 0.447 1 1S16.582 59 16.03 59z" fill="#0718c4" data-fill-palette-color="accent"></path></g><g fill="#0718c4" data-fill-palette-color="accent"><path d="M17 40c-0.553 0-1-0.447-1-1v-2c0-0.553 0.447-1 1-1s1 0.447 1 1v2C18 39.553 17.553 40 17 40z" fill="#0718c4" data-fill-palette-color="accent"></path></g><g fill="#0718c4" data-fill-palette-color="accent"><path d="M25 40c-0.553 0-1-0.447-1-1v-4c0-0.553 0.447-1 1-1s1 0.447 1 1v4C26 39.553 25.553 40 25 40z" fill="#0718c4" data-fill-palette-color="accent"></path></g><g fill="#0718c4" data-fill-palette-color="accent"><path d="M33 40c-0.553 0-1-0.447-1-1v-1c0-0.553 0.447-1 1-1s1 0.447 1 1v1C34 39.553 33.553 40 33 40z" fill="#0718c4" data-fill-palette-color="accent"></path></g><g fill="#0718c4" data-fill-palette-color="accent"><path d="M41 40c-0.553 0-1-0.447-1-1v-5c0-0.553 0.447-1 1-1s1 0.447 1 1v5C42 39.553 41.553 40 41 40z" fill="#0718c4" data-fill-palette-color="accent"></path></g><g fill="#0718c4" data-fill-palette-color="accent"><path d="M21 40c-0.553 0-1-0.447-1-1v-7c0-0.553 0.447-1 1-1s1 0.447 1 1v7C22 39.553 21.553 40 21 40z" fill="#0718c4" data-fill-palette-color="accent"></path></g><g fill="#0718c4" data-fill-palette-color="accent"><path d="M29 40c-0.553 0-1-0.447-1-1v-5c0-0.553 0.447-1 1-1s1 0.447 1 1v5C30 39.553 29.553 40 29 40z" fill="#0718c4" data-fill-palette-color="accent"></path></g><g fill="#0718c4" data-fill-palette-color="accent"><path d="M37 40c-0.553 0-1-0.447-1-1v-7c0-0.553 0.447-1 1-1s1 0.447 1 1v7C38 39.553 37.553 40 37 40z" fill="#0718c4" data-fill-palette-color="accent"></path></g><g fill="#0718c4" data-fill-palette-color="accent"><path d="M21 22c-0.553 0-1-0.447-1-1V4c0-0.553 0.447-1 1-1s1 0.447 1 1v17C22 21.553 21.553 22 21 22z" fill="#0718c4" data-fill-palette-color="accent"></path></g><g fill="#0718c4" data-fill-palette-color="accent"><path d="M43 22c-0.553 0-1-0.447-1-1V4c0-0.553 0.447-1 1-1s1 0.447 1 1v17C44 21.553 43.553 22 43 22z" fill="#0718c4" data-fill-palette-color="accent"></path></g><g fill="#0718c4" data-fill-palette-color="accent"><path d="M43 5c-0.553 0-1-0.447-1-1 0-2.206 1.794-4 4-4 0.553 0 1 0.447 1 1s-0.447 1-1 1c-1.103 0-2 0.897-2 2C44 4.553 43.553 5 43 5z" fill="#0718c4" data-fill-palette-color="accent"></path></g><g fill="#0718c4" data-fill-palette-color="accent"><path d="M52 14c-2.206 0-4-1.794-4-4 0-0.553 0.447-1 1-1s1 0.447 1 1c0 1.103 0.897 2 2 2 0.553 0 1 0.447 1 1S52.553 14 52 14z" fill="#0718c4" data-fill-palette-color="accent"></path></g><g fill="#0718c4" data-fill-palette-color="accent"><path d="M52 14c-0.553 0-1-0.447-1-1s0.447-1 1-1c1.103 0 2-0.897 2-2 0-0.553 0.447-1 1-1s1 0.447 1 1C56 12.206 54.206 14 52 14z" fill="#0718c4" data-fill-palette-color="accent"></path></g><g fill="#0718c4" data-fill-palette-color="accent"><path d="M49 5c-0.553 0-1-0.447-1-1 0-1.103-0.897-2-2-2-0.553 0-1-0.447-1-1s0.447-1 1-1c2.206 0 4 1.794 4 4C50 4.553 49.553 5 49 5z" fill="#0718c4" data-fill-palette-color="accent"></path></g><g fill="#0718c4" data-fill-palette-color="accent"><path d="M21 5c-0.553 0-1-0.447-1-1 0-2.206 1.794-4 4-4 0.553 0 1 0.447 1 1s-0.447 1-1 1c-1.103 0-2 0.897-2 2C22 4.553 21.553 5 21 5z" fill="#0718c4" data-fill-palette-color="accent"></path></g><g fill="#0718c4" data-fill-palette-color="accent"><path d="M46 2H24c-0.553 0-1-0.447-1-1s0.447-1 1-1h22c0.553 0 1 0.447 1 1S46.553 2 46 2z" fill="#0718c4" data-fill-palette-color="accent"></path></g><g fill="#0718c4" data-fill-palette-color="accent"><path d="M49 11c-0.553 0-1-0.447-1-1V4c0-0.553 0.447-1 1-1s1 0.447 1 1v6C50 10.553 49.553 11 49 11z" fill="#0718c4" data-fill-palette-color="accent"></path></g><g fill="#0718c4" data-fill-palette-color="accent"><path d="M55 19H43c-0.553 0-1-0.447-1-1s0.447-1 1-1h12c0.553 0 1 0.447 1 1S55.553 19 55 19z" fill="#0718c4" data-fill-palette-color="accent"></path></g><g fill="#0718c4" data-fill-palette-color="accent"><path d="M55 11c-0.553 0-1-0.447-1-1V8c0-0.553 0.447-1 1-1s1 0.447 1 1v2C56 10.553 55.553 11 55 11z" fill="#0718c4" data-fill-palette-color="accent"></path></g><g fill="#0718c4" data-fill-palette-color="accent"><path d="M54 10c-0.256 0-0.512-0.098-0.707-0.293-0.391-0.391-0.391-1.023 0-1.414l1-1c0.391-0.391 1.023-0.391 1.414 0s0.391 1.023 0 1.414l-1 1C54.512 9.902 54.256 10 54 10z" fill="#0718c4" data-fill-palette-color="accent"></path></g><g fill="#0718c4" data-fill-palette-color="accent"><path d="M54 10c-0.256 0-0.512-0.098-0.707-0.293l-1-1c-0.391-0.391-0.391-1.023 0-1.414s1.023-0.391 1.414 0l1 1c0.391 0.391 0.391 1.023 0 1.414C54.512 9.902 54.256 10 54 10z" fill="#0718c4" data-fill-palette-color="accent"></path></g><g fill="#0718c4" data-fill-palette-color="accent"><path d="M52 10c-0.256 0-0.512-0.098-0.707-0.293-0.391-0.391-0.391-1.023 0-1.414l1-1c0.391-0.391 1.023-0.391 1.414 0s0.391 1.023 0 1.414l-1 1C52.512 9.902 52.256 10 52 10z" fill="#0718c4" data-fill-palette-color="accent"></path></g><g fill="#0718c4" data-fill-palette-color="accent"><path d="M52 10c-0.256 0-0.512-0.098-0.707-0.293l-1-1c-0.391-0.391-0.391-1.023 0-1.414s1.023-0.391 1.414 0l1 1c0.391 0.391 0.391 1.023 0 1.414C52.512 9.902 52.256 10 52 10z" fill="#0718c4" data-fill-palette-color="accent"></path></g><g fill="#0718c4" data-fill-palette-color="accent"><path d="M50 10c-0.256 0-0.512-0.098-0.707-0.293-0.391-0.391-0.391-1.023 0-1.414l1-1c0.391-0.391 1.023-0.391 1.414 0s0.391 1.023 0 1.414l-1 1C50.512 9.902 50.256 10 50 10z" fill="#0718c4" data-fill-palette-color="accent"></path></g><g fill="#0718c4" data-fill-palette-color="accent"><path d="M50 10c-0.256 0-0.512-0.098-0.707-0.293l-1-1c-0.391-0.391-0.391-1.023 0-1.414s1.023-0.391 1.414 0l1 1c0.391 0.391 0.391 1.023 0 1.414C50.512 9.902 50.256 10 50 10z" fill="#0718c4" data-fill-palette-color="accent"></path></g><g fill="#0718c4" data-fill-palette-color="accent"><path d="M52 14h-9c-0.553 0-1-0.447-1-1s0.447-1 1-1h9c0.553 0 1 0.447 1 1S52.553 14 52 14z" fill="#0718c4" data-fill-palette-color="accent"></path></g><g fill="#0718c4" data-fill-palette-color="accent"><path d="M29 15c-2.206 0-4-1.794-4-4s1.794-4 4-4 4 1.794 4 4S31.206 15 29 15zM29 9c-1.103 0-2 0.897-2 2s0.897 2 2 2 2-0.897 2-2S30.103 9 29 9z" fill="#0718c4" data-fill-palette-color="accent"></path></g><g fill="#0718c4" data-fill-palette-color="accent"><path d="M38 12h-6c-0.553 0-1-0.447-1-1s0.447-1 1-1h6c0.553 0 1 0.447 1 1S38.553 12 38 12z" fill="#0718c4" data-fill-palette-color="accent"></path></g><g fill="#0718c4" data-fill-palette-color="accent"><path d="M38 14c-0.553 0-1-0.447-1-1v-2c0-0.553 0.447-1 1-1s1 0.447 1 1v2C39 13.553 38.553 14 38 14z" fill="#0718c4" data-fill-palette-color="accent"></path></g><g fill="#0718c4" data-fill-palette-color="accent"><path d="M35 13c-0.553 0-1-0.447-1-1v-1c0-0.553 0.447-1 1-1s1 0.447 1 1v1C36 12.553 35.553 13 35 13z" fill="#0718c4" data-fill-palette-color="accent"></path></g></g></g></svg></g></svg></g></svg></g><defs></defs></svg><rect width="395.5199999999999" height="75.52916638718838" fill="none" stroke="none" visibility="hidden"></rect></g></svg></g></svg>